<svg width="1200" height="630" viewBox="0 0 1200 630" xmlns="http://www.w3.org/2000/svg">
  <rect width="1200" height="630" fill="#050507"/>
  <ellipse cx="600" cy="315" rx="460" ry="350" fill="#1a0800" opacity="0.9"/>
  <ellipse cx="600" cy="355" rx="250" ry="230" fill="#2d1000" opacity="0.7"/>

  <!-- Flame outer -->
  <path d="M600 108 C640 160 690 196 686 274 C682 328 660 356 652 386 C640 430 628 458 600 482 C572 458 560 430 548 386 C540 356 518 328 514 274 C510 196 560 160 600 108Z" fill="#f97316"/>
  <!-- Flame mid -->
  <path d="M600 158 C628 200 658 228 656 284 C654 324 636 350 628 376 C618 408 610 440 600 466 C590 440 582 408 572 376 C564 350 546 324 544 284 C542 228 572 200 600 158Z" fill="#fb923c" opacity="0.9"/>
  <!-- Flame inner -->
  <path d="M600 208 C616 238 632 264 630 298 C628 328 614 350 608 372 C604 390 602 414 600 438 C598 414 596 390 592 372 C586 350 572 328 570 298 C568 264 584 238 600 208Z" fill="#fbbf24" opacity="0.7"/>
  <ellipse cx="600" cy="230" rx="25" ry="40" fill="#fef3c7" opacity="0.4"/>

  <!-- App name -->
  <text x="600" y="558" text-anchor="middle" font-family="'Syne', system-ui, sans-serif" font-weight="800" font-size="96" fill="#ffffff" letter-spacing="-2">flare</text>

  <!-- Tagline -->
  <text x="600" y="604" text-anchor="middle" font-family="'DM Sans', system-ui, sans-serif" font-weight="400" font-size="22" fill="#f97316" letter-spacing="6">EPHEMERAL · ENCRYPTED · YOURS</text>

  <!-- Left pill -->
  <rect x="176" y="298" width="194" height="52" rx="26" fill="#1a1a22" stroke="#f97316" stroke-width="1.2"/>
  <text x="273" y="330" text-anchor="middle" font-family="'DM Sans', system-ui, sans-serif" font-size="20" fill="#f97316">24h Stories</text>

  <!-- Right pill -->
  <rect x="830" y="298" width="194" height="52" rx="26" fill="#1a1a22" stroke="#f97316" stroke-width="1.2"/>
  <text x="927" y="330" text-anchor="middle" font-family="'DM Sans', system-ui, sans-serif" font-size="20" fill="#f97316">NIP-17 DMs</text>

  <!-- URL bottom -->
  <text x="600" y="622" text-anchor="middle" font-family="'DM Sans', system-ui, sans-serif" font-size="16" fill="#333344">flarenos.pages.dev</text>
</svg>
